name C:\Users\u0101727\Documents\MyRepositories\upper-imu-dc\Results\main_tracking\Case_42\kinematics.mot
datacolumns 10
datarows 23
range 0.50000000 0.72000000
endheader 
time	clav_prot	clav_elev	scapula_abduction	scapula_elevation	scapula_upward_rot	scapula_winging	plane_elv	shoulder_elv	axial_rot	
          0.50000000	        -22.71393747	         -7.54814225	        -12.79413465	         -5.80181111	         10.32855462	          7.19939981	        -29.87424762	         11.94351405	         45.80834362	
          0.51000000	        -22.96016162	         -7.42879231	        -13.96590266	         -5.74763438	         10.28410975	          7.20130762	        -29.17595812	         12.02710863	         45.24469392	
          0.52000000	        -23.03155881	         -7.35583560	        -14.12263822	         -5.68618678	         10.25032019	          7.18250984	        -28.47941707	         12.13186548	         44.68013112	
          0.53000000	        -23.06957464	         -7.28546540	        -14.21601326	         -5.62738589	         10.22651113	          7.16121793	        -27.78490632	         12.25684382	         44.11766955	
          0.54000000	        -23.11268990	         -7.21787836	        -14.31186207	         -5.57389928	         10.21321212	          7.13888559	        -27.08799218	         12.39509805	         43.55684466	
          0.55000000	        -23.15742317	         -7.15538512	        -14.40370176	         -5.52731177	         10.21041462	          7.11625586	        -26.38463581	         12.54143012	         42.99693639	
          0.56000000	        -23.20169857	         -7.09941365	        -14.48786380	         -5.48849800	         10.21771249	          7.09387032	        -25.67111024	         12.69212913	         42.43722534	
          0.57000000	        -23.24403011	         -7.05079703	        -14.56194237	         -5.45784197	         10.23447074	          7.07211917	        -24.94384464	         12.84464170	         41.87659361	
          0.58000000	        -23.28353098	         -7.00993475	        -14.62472142	         -5.43539214	         10.25993097	          7.05128184	        -24.19933073	         12.99732971	         41.31326962	
          0.59000000	        -23.31963188	         -6.97693500	        -14.67562607	         -5.42097312	         10.29327703	          7.03155779	        -23.43406234	         13.14929129	         40.74459904	
          0.60000000	        -23.35193242	         -6.95171166	        -14.71442695	         -5.41426266	         10.33367304	          7.01309008	        -22.64450096	         13.30022312	         40.16688528	
          0.61000000	        -23.38051061	         -6.93401792	        -14.74175415	         -5.41484310	         10.38028397	          6.99598004	        -21.82708080	         13.45030894	         39.57535323	
          0.62000000	        -23.40545397	         -6.92351946	        -14.75826056	         -5.42223722	         10.43230375	          6.98029418	        -20.97825934	         13.60011013	         38.96421821	
          0.63000000	        -23.42698176	         -6.91980559	        -14.76482610	         -5.43592641	         10.48896147	          6.96606890	        -20.09457628	         13.75047651	         38.32691223	
          0.64000000	        -23.44538075	         -6.92240401	        -14.76242330	         -5.45536857	         10.54955911	          6.95330418	        -19.17278908	         13.90243835	         37.65643044	
          0.65000000	        -23.46101287	         -6.93078538	        -14.75212138	         -5.48000593	         10.61348516	          6.94196096	        -18.20997234	         14.05712177	         36.94573159	
          0.66000000	        -23.47426698	         -6.94437198	        -14.73499055	         -5.50927386	         10.68023361	          6.93195768	        -17.20363098	         14.21566976	         36.18814617	
          0.67000000	        -23.48552437	         -6.96254864	        -14.71203781	         -5.54260808	         10.74940719	          6.92317189	        -16.15177714	         14.37918696	         35.37772579	
          0.68000000	        -23.49513780	         -6.98467630	        -14.68416982	         -5.57945254	         10.82071283	          6.91544534	        -15.05298562	         14.54870230	         34.50952864	
          0.69000000	        -23.50342283	         -7.01010748	        -14.65217986	         -5.61926785	         10.89395074	          6.90859160	        -13.90642738	         14.72514659	         33.57984928	
          0.70000000	        -23.51065620	         -7.03820210	        -14.61674852	         -5.66153972	         10.96900110	          6.90240493	        -12.71188555	         14.90933983	         32.58640736	
          0.71000000	        -23.51707444	         -7.06834245	        -14.57844529	         -5.70578658	         11.04580989	          6.89666910	        -11.46975232	         15.10198534	         31.52849498	
          0.72000000	        -23.52287066	         -7.09994571	        -14.53772812	         -5.75156512	         11.12437440	          6.89116557	        -10.18100402	         15.30367015	         30.40706624	
